<svg width="241" height="35" viewBox="0 0 241 35" fill="none" xmlns="http://www.w3.org/2000/svg">
<path d="M48.6722 0.875065L40.6021 33.7619H29.3599L24.8351 13.61L20.2169 33.7619H8.97478L0.997986 0.875065H10.8873L14.7125 23.3594L19.8904 0.875065H29.9197L34.9577 23.1728L38.7828 0.875065H48.6722Z" fill="#594EE7"/>
<path d="M61.695 8.19879V13.5633H72.1908V20.5138H61.695V26.4381H73.5902V33.7619H52.552V0.875065H73.5902V8.19879H61.695Z" fill="#594EE7"/>
<path d="M99.0997 16.8753C101.028 17.3107 102.552 18.2747 103.671 19.7675C104.822 21.2291 105.397 22.9084 105.397 24.8055C105.397 27.6043 104.433 29.7968 102.505 31.3828C100.577 32.9688 97.8713 33.7619 94.3883 33.7619H78.1081V0.875065H93.8751C97.2338 0.875065 99.8616 1.62143 101.759 3.11417C103.687 4.6069 104.651 6.70606 104.651 9.41164C104.651 11.3398 104.138 12.9569 103.111 14.263C102.116 15.5381 100.779 16.4088 99.0997 16.8753ZM87.2511 13.9365H91.8693C94.1706 13.9365 95.3212 12.988 95.3212 11.091C95.3212 9.13175 94.1706 8.15214 91.8693 8.15214H87.2511V13.9365ZM92.569 26.3915C94.8703 26.3915 96.0209 25.4274 96.0209 23.4993C96.0209 22.5042 95.71 21.7422 95.088 21.2136C94.4971 20.6849 93.6419 20.4206 92.5223 20.4206H87.2511V26.3915H92.569Z" fill="#594EE7"/>
<path d="M147.795 0.875065V33.7619H138.652V15.6158L132.448 33.7619H124.798L118.547 15.4759V33.7619H109.404V0.875065H120.46L128.716 22.2398L136.786 0.875065H147.795Z" fill="#594EE7"/>
<path d="M168.767 34.0884C165.688 34.0884 162.858 33.3731 160.277 31.9426C157.696 30.481 155.643 28.4751 154.119 25.925C152.627 23.3438 151.88 20.4361 151.88 17.2018C151.88 13.9676 152.627 11.0754 154.119 8.52533C155.643 5.94414 157.696 3.93828 160.277 2.50774C162.858 1.07721 165.688 0.361938 168.767 0.361938C171.877 0.361938 174.707 1.07721 177.257 2.50774C179.838 3.93828 181.875 5.94414 183.368 8.52533C184.86 11.0754 185.607 13.9676 185.607 17.2018C185.607 20.4361 184.86 23.3438 183.368 25.925C181.875 28.4751 179.838 30.481 177.257 31.9426C174.676 33.3731 171.846 34.0884 168.767 34.0884ZM168.767 25.5985C171.099 25.5985 172.934 24.8366 174.271 23.3127C175.64 21.7889 176.324 19.7519 176.324 17.2018C176.324 14.5896 175.64 12.5371 174.271 11.0443C172.934 9.52048 171.099 8.75857 168.767 8.75857C166.403 8.75857 164.553 9.52048 163.216 11.0443C161.879 12.5371 161.21 14.5896 161.21 17.2018C161.21 19.783 161.879 21.8355 163.216 23.3594C164.553 24.8521 166.403 25.5985 168.767 25.5985Z" fill="#594EE7"/>
<path d="M207.602 0.875065V19.9541C207.602 21.7267 208.006 23.095 208.815 24.0591C209.655 25.0232 210.914 25.5052 212.593 25.5052C214.273 25.5052 215.532 25.0232 216.372 24.0591C217.243 23.0639 217.678 21.6956 217.678 19.9541V0.875065H226.821V19.9541C226.821 22.9706 226.184 25.5518 224.908 27.6976C223.633 29.8123 221.892 31.4139 219.684 32.5024C217.507 33.5597 215.081 34.0884 212.407 34.0884C209.732 34.0884 207.338 33.5597 205.223 32.5024C203.139 31.4139 201.491 29.8123 200.278 27.6976C199.097 25.5829 198.506 23.0017 198.506 19.9541V0.875065H207.602Z" fill="#594EE7"/>
<path d="M240.998 0.875065V33.7619H231.855V0.875065H240.998Z" fill="#594EE7"/>
</svg>
